<svg viewBox="0 0 330 200" xmlns="http://www.w3.org/2000/svg"><g><g><g><g><g><line x1="41.171875" y1="177" x2="36.171875" y2="177" style="visibility: inherit;" fill="rgb(0, 0, 0)" stroke="rgb(204, 204, 204)" stroke-width="1px"></line><line x1="41.171875" y1="160.9090909090909" x2="36.171875" y2="160.9090909090909" style="visibility: inherit;" fill="rgb(0, 0, 0)" stroke="rgb(204, 204, 204)" stroke-width="1px"></line><line x1="41.171875" y1="144.8181818181818" x2="36.171875" y2="144.8181818181818" style="visibility: inherit;" fill="rgb(0, 0, 0)" stroke="rgb(204, 204, 204)" stroke-width="1px"></line><line x1="41.171875" y1="128.72727272727272" x2="36.171875" y2="128.72727272727272" style="visibility: inherit;" fill="rgb(0, 0, 0)" stroke="rgb(204, 204, 204)" stroke-width="1px"></line><line x1="41.171875" y1="112.63636363636364" x2="36.171875" y2="112.63636363636364" style="visibility: inherit;" fill="rgb(0, 0, 0)" stroke="rgb(204, 204, 204)" stroke-width="1px"></line><line x1="41.171875" y1="96.54545454545453" x2="36.171875" y2="96.54545454545453" style="visibility: inherit;" fill="rgb(0, 0, 0)" stroke="rgb(204, 204, 204)" stroke-width="1px"></line><line x1="41.171875" y1="80.45454545454547" x2="36.171875" y2="80.45454545454547" style="visibility: inherit;" fill="rgb(0, 0, 0)" stroke="rgb(204, 204, 204)" stroke-width="1px"></line><line x1="41.171875" y1="64.36363636363639" x2="36.171875" y2="64.36363636363639" style="visibility: inherit;" fill="rgb(0, 0, 0)" stroke="rgb(204, 204, 204)" stroke-width="1px"></line><line x1="41.171875" y1="48.272727272727266" x2="36.171875" y2="48.272727272727266" style="visibility: inherit;" fill="rgb(0, 0, 0)" stroke="rgb(204, 204, 204)" stroke-width="1px"></line><line x1="41.171875" y1="32.181818181818194" x2="36.171875" y2="32.181818181818194" style="visibility: inherit;" fill="rgb(0, 0, 0)" stroke="rgb(204, 204, 204)" stroke-width="1px"></line><line x1="41.171875" y1="16.090909090909097" x2="36.171875" y2="16.090909090909097" style="visibility: inherit;" fill="rgb(0, 0, 0)" stroke="rgb(204, 204, 204)" stroke-width="1px"></line><line x1="41.171875" y1="0" x2="36.171875" y2="0" style="visibility: inherit;" fill="rgb(0, 0, 0)" stroke="rgb(204, 204, 204)" stroke-width="1px"></line></g><g transform="translate(31.171875, 0)"><text x="0" y="177" dx="0em" dy="0.3em" style="text-anchor: end; visibility: hidden; font-family: Roboto, sans-serif; font-size: 12px; font-weight: 200;" fill="rgb(33, 33, 33)" stroke="none" stroke-width="1px">0</text><text x="0" y="160.9090909090909" dx="0em" dy="0.3em" style="text-anchor: end; visibility: inherit; font-family: Roboto, sans-serif; font-size: 12px; font-weight: 200;" fill="rgb(33, 33, 33)" stroke="none" stroke-width="1px">0.1</text><text x="0" y="144.8181818181818" dx="0em" dy="0.3em" style="text-anchor: end; visibility: hidden; font-family: Roboto, sans-serif; font-size: 12px; font-weight: 200;" fill="rgb(33, 33, 33)" stroke="none" stroke-width="1px">0.2</text><text x="0" y="128.72727272727272" dx="0em" dy="0.3em" style="text-anchor: end; visibility: inherit; font-family: Roboto, sans-serif; font-size: 12px; font-weight: 200;" fill="rgb(33, 33, 33)" stroke="none" stroke-width="1px">0.3</text><text x="0" y="112.63636363636364" dx="0em" dy="0.3em" style="text-anchor: end; visibility: hidden; font-family: Roboto, sans-serif; font-size: 12px; font-weight: 200;" fill="rgb(33, 33, 33)" stroke="none" stroke-width="1px">0.4</text><text x="0" y="96.54545454545453" dx="0em" dy="0.3em" style="text-anchor: end; visibility: inherit; font-family: Roboto, sans-serif; font-size: 12px; font-weight: 200;" fill="rgb(33, 33, 33)" stroke="none" stroke-width="1px">0.5</text><text x="0" y="80.45454545454547" dx="0em" dy="0.3em" style="text-anchor: end; visibility: hidden; font-family: Roboto, sans-serif; font-size: 12px; font-weight: 200;" fill="rgb(33, 33, 33)" stroke="none" stroke-width="1px">0.6</text><text x="0" y="64.36363636363639" dx="0em" dy="0.3em" style="text-anchor: end; visibility: inherit; font-family: Roboto, sans-serif; font-size: 12px; font-weight: 200;" fill="rgb(33, 33, 33)" stroke="none" stroke-width="1px">0.7</text><text x="0" y="48.272727272727266" dx="0em" dy="0.3em" style="text-anchor: end; visibility: hidden; font-family: Roboto, sans-serif; font-size: 12px; font-weight: 200;" fill="rgb(33, 33, 33)" stroke="none" stroke-width="1px">0.8</text><text x="0" y="32.181818181818194" dx="0em" dy="0.3em" style="text-anchor: end; visibility: inherit; font-family: Roboto, sans-serif; font-size: 12px; font-weight: 200;" fill="rgb(33, 33, 33)" stroke="none" stroke-width="1px">0.9</text><text x="0" y="16.090909090909097" dx="0em" dy="0.3em" style="text-anchor: end; visibility: hidden; font-family: Roboto, sans-serif; font-size: 12px; font-weight: 200;" fill="rgb(33, 33, 33)" stroke="none" stroke-width="1px">1</text><text x="0" y="0" dx="0em" dy="0.3em" style="text-anchor: end; visibility: hidden; font-family: Roboto, sans-serif; font-size: 12px; font-weight: 200;" fill="rgb(33, 33, 33)" stroke="none" stroke-width="1px">1.1</text></g><line x1="41.171875" y1="0" x2="41.171875" y2="177" fill="rgb(0, 0, 0)" stroke="rgb(204, 204, 204)" stroke-width="1px"></line></g></g><g transform="translate(41, 0)" clip-path="url(#clip_0)"><clipPath id="clip_0"><rect width="288" height="177"></rect></clipPath><g><g><g><line x1="0" y1="0" x2="0" y2="177" fill="rgb(0, 0, 0)" stroke="rgb(66, 66, 66)" stroke-width="1px" opacity="0.25"></line><line x1="32.092013888888886" y1="0" x2="32.092013888888886" y2="177" fill="rgb(0, 0, 0)" stroke="rgb(66, 66, 66)" stroke-width="1px" opacity="0.25"></line><line x1="64.18402777777777" y1="0" x2="64.18402777777777" y2="177" fill="rgb(0, 0, 0)" stroke="rgb(66, 66, 66)" stroke-width="1px" opacity="0.25"></line><line x1="96.27604166666666" y1="0" x2="96.27604166666666" y2="177" fill="rgb(0, 0, 0)" stroke="rgb(66, 66, 66)" stroke-width="1px" opacity="0.25"></line><line x1="128.36805555555554" y1="0" x2="128.36805555555554" y2="177" fill="rgb(0, 0, 0)" stroke="rgb(66, 66, 66)" stroke-width="1px" opacity="0.25"></line><line x1="160.46006944444446" y1="0" x2="160.46006944444446" y2="177" fill="rgb(0, 0, 0)" stroke="rgb(66, 66, 66)" stroke-width="1px" opacity="0.25"></line><line x1="192.55208333333331" y1="0" x2="192.55208333333331" y2="177" fill="rgb(0, 0, 0)" stroke="rgb(66, 66, 66)" stroke-width="1px" opacity="0.25"></line><line x1="224.64409722222223" y1="0" x2="224.64409722222223" y2="177" fill="rgb(0, 0, 0)" stroke="rgb(66, 66, 66)" stroke-width="1px" opacity="0.25"></line><line x1="256.7361111111111" y1="0" x2="256.7361111111111" y2="177" fill="rgb(0, 0, 0)" stroke="rgb(66, 66, 66)" stroke-width="1px" opacity="0.25"></line><line x1="288.828125" y1="0" x2="288.828125" y2="177" fill="rgb(0, 0, 0)" stroke="rgb(66, 66, 66)" stroke-width="1px" opacity="0.25"></line></g><g><line x1="0" y1="177" x2="288.828125" y2="177" fill="rgb(0, 0, 0)" stroke="rgb(66, 66, 66)" stroke-width="1px" opacity="0.25"></line><line x1="0" y1="160.9090909090909" x2="288.828125" y2="160.9090909090909" fill="rgb(0, 0, 0)" stroke="rgb(66, 66, 66)" stroke-width="1px" opacity="0.25"></line><line x1="0" y1="144.8181818181818" x2="288.828125" y2="144.8181818181818" fill="rgb(0, 0, 0)" stroke="rgb(66, 66, 66)" stroke-width="1px" opacity="0.25"></line><line x1="0" y1="128.72727272727272" x2="288.828125" y2="128.72727272727272" fill="rgb(0, 0, 0)" stroke="rgb(66, 66, 66)" stroke-width="1px" opacity="0.25"></line><line x1="0" y1="112.63636363636364" x2="288.828125" y2="112.63636363636364" fill="rgb(0, 0, 0)" stroke="rgb(66, 66, 66)" stroke-width="1px" opacity="0.25"></line><line x1="0" y1="96.54545454545453" x2="288.828125" y2="96.54545454545453" fill="rgb(0, 0, 0)" stroke="rgb(66, 66, 66)" stroke-width="1px" opacity="0.25"></line><line x1="0" y1="80.45454545454547" x2="288.828125" y2="80.45454545454547" fill="rgb(0, 0, 0)" stroke="rgb(66, 66, 66)" stroke-width="1px" opacity="0.25"></line><line x1="0" y1="64.36363636363639" x2="288.828125" y2="64.36363636363639" fill="rgb(0, 0, 0)" stroke="rgb(66, 66, 66)" stroke-width="1px" opacity="0.25"></line><line x1="0" y1="48.272727272727266" x2="288.828125" y2="48.272727272727266" fill="rgb(0, 0, 0)" stroke="rgb(66, 66, 66)" stroke-width="1px" opacity="0.25"></line><line x1="0" y1="32.181818181818194" x2="288.828125" y2="32.181818181818194" fill="rgb(0, 0, 0)" stroke="rgb(66, 66, 66)" stroke-width="1px" opacity="0.25"></line><line x1="0" y1="16.090909090909097" x2="288.828125" y2="16.090909090909097" fill="rgb(0, 0, 0)" stroke="rgb(66, 66, 66)" stroke-width="1px" opacity="0.25"></line><line x1="0" y1="0" x2="288.828125" y2="0" fill="rgb(0, 0, 0)" stroke="rgb(66, 66, 66)" stroke-width="1px" opacity="0.25"></line></g></g></g><g><g><line x1="0" y1="177" x2="288.828125" y2="177" fill="rgb(0, 0, 0)" stroke="rgb(153, 153, 153)" stroke-width="1.5px"></line></g></g><g><g><line x1="32.092013888888886" y1="0" x2="32.092013888888886" y2="177" fill="rgb(0, 0, 0)" stroke="rgb(153, 153, 153)" stroke-width="1.5px"></line></g></g><g><g><g><g><g><path stroke="rgb(255, 112, 67)" stroke-width="2px" d="M32.41293402777778,25.42157884077593L33.054774305555554,64.58082800233618L33.11895833333333,89.01439525431437L33.311510416666664,110.60827029786888L33.37569444444444,114.44555662288238L33.43987847222222,114.72110355726294L33.56824652777778,102.34886094222723L33.82498263888889,95.21362292681445L33.88916666666667,102.52108001326084L34.723559027777775,103.78643906781292L35.172847222222224,104.94755090635836L35.23703125,110.61015311709095L35.30121527777778,110.53119511856548L35.622135416666666,110.3933643787632L36.00723958333333,109.15303915413976L36.13560763888889,114.06745477611187L36.19979166666666,116.50890676555093L36.39234375,120.18688305461299L36.45652777777778,122.75534433732676L36.64907986111111,126.68291729677453L36.71326388888889,129.9217681693216L37.098368055555554,133.11223424449042L37.41928819444445,133.82668294973047L37.86857638888889,135.28767381784786L38.510416666666664,136.50396757497788L38.767152777777774,136.0169683836979L38.95970486111111,137.1823712563797L39.023888888888884,138.82331476624742L39.60154513888889,140.98184591246252L39.922465277777775,142.79071771089556L40.179201388888885,141.72706829822098L40.24338541666667,142.13055483809754L40.371753472222224,144.30186506866193L40.50012152777778,144.46247596086948L40.88522569444444,131.02410572139885L40.94940972222222,132.3629848340654L41.39869791666667,132.06874952283064L41.527065972222225,134.61022040957917L41.591249999999995,136.4652059705226L41.783802083333335,137.86957613880406L42.23309027777778,139.1779278031537L42.425642361111116,134.62055488630563L42.55401041666667,134.51296035017808L42.682378472222226,133.788339487485L43.06748263888889,134.60227298682403L43.13166666666667,136.1613768111636L43.195850694444445,137.73936442742735L43.51677083333333,138.47251352730518L43.96605902777778,136.95360717486807L44.03024305555555,137.83982125147833L44.094427083333336,139.7594955302465L44.351163194444446,141.6452736510255L44.41534722222222,138.01019339940026L44.47953125,138.64427582328756L44.92881944444444,140.59747862578453L45.12137152777778,141.30469759282624L45.18555555555555,137.49398399858356L45.24973958333334,139.19252806079027L45.31392361111111,138.14325708523094L45.44229166666666,140.47749629979833L45.69902777777777,140.89875291874017L45.827395833333334,139.7202840315163L45.95576388888889,140.9925540123558L46.276684027777776,142.47144397063505L46.34086805555555,143.43208881599588L46.53342013888889,142.6856563642114L46.85434027777777,142.5035009460488L47.496180555555554,144.20862649267818L47.81710069444445,145.4587859376787L47.88128472222222,140.28779966049558L47.94546875,139.6226443538332L48.71567708333333,137.92313975830558L48.77986111111111,138.4201649456662L48.84404513888889,130.21524230779087L49.55006944444444,120.1907059820534L49.74262152777778,122.41606077053494L49.87098958333333,123.46466569878531L49.99935763888889,126.96443380088624L50.25609375,126.23155939407935L50.44864583333333,126.89913208093228L50.64119791666667,129.48688854301156L50.769565972222225,130.73115014545567L51.09048611111111,132.57274871819294L51.21885416666667,133.17526379065404L51.283038194444444,135.65896806328703L51.79651041666667,136.88447955036926L51.924878472222225,136.39210341073664L52.181614583333335,135.5359258057969L52.438350694444445,137.1504223772037L52.56671875,138.794978544655L52.63090277777778,140.31774028720739L52.82345486111111,141.48605633641694L53.78621527777778,142.10481752969233L53.850399305555555,141.40743443470816L54.17131944444444,142.30735424332602L54.2996875,142.57803442375413L54.36387152777778,142.13951984174417L54.74897569444445,139.12477221183147L54.87734375,136.3145425492978L55.13407986111111,138.4843195504089L55.39081597222222,136.40123947097305L55.519184027777776,137.59758890870094L55.58336805555555,138.54442364550772L55.64755208333334,139.40429319394963L55.71173611111111,141.68206349864477L56.41776041666667,130.84112892013982L56.931232638888886,133.80891556133076L57.18796875,135.64240460536377L57.31633680555556,135.75286460345941L57.637256944444445,134.85410374608176L57.95817708333333,135.8891770975481L58.08654513888889,125.362973202122L58.407465277777774,125.95402476597556L58.72838541666667,126.4652423396083L58.79256944444444,128.55166190445456L59.17767361111111,130.6382624367921L59.24185763888889,132.5392249400525L59.49859375,135.14864764728037L60.14043402777778,135.62166961061584L60.20461805555555,135.711233479762L60.33298611111111,138.3661843259942L60.58972222222222,135.72095808452067L60.65390625,138.12457623724006L60.78227430555555,140.1789400641859L61.03901041666667,141.1599236772456L61.167378472222225,142.59894926688617L61.424114583333335,142.5078105940422L61.74503472222222,143.83955850402302L62.00177083333333,145.8432649353746L62.06595486111111,147.70582871214106L62.194322916666664,147.94802950369592L62.322690972222226,148.44720295328005L62.579427083333336,148.96465246969726L62.643611111111106,149.13946242446693L62.96453125,150.06961899023364L63.02871527777778,145.35291095550798L63.41381944444444,141.59937341863085L63.5421875,141.81276663819665L63.86310763888889,135.0779401512041L64.11984375,137.0125157736069L64.82586805555556,133.7144779088329L64.89005208333333,129.05929064232367L64.95423611111111,132.30363213981954L65.0184201388889,134.00711527260688L65.08260416666667,136.54095800370692L65.14678819444444,138.47599221741658L65.33934027777778,139.85425992152986L65.40352430555555,141.89033303228283L65.46770833333333,133.17280899716266L66.36628472222222,134.97570522304005L66.43046875,137.39970079000497L66.55883680555556,139.5827624535325L66.62302083333333,141.2602933064265L66.68720486111111,142.59707786788252L66.81557291666667,143.57186342498338L66.94394097222222,139.88973791275222L67.07230902777778,141.9531121073796L67.20067708333333,143.49152548720605L67.45741319444444,145.0199137277641L67.58578125000001,145.27984996124601L67.84251736111112,138.31720524425506L68.22762152777777,140.5626685650173L68.35598958333333,141.9668474578246L68.61272569444444,141.55640436239273L68.93364583333333,140.82940817478809L69.63967013888889,138.76441271205806L69.70385416666667,139.16801203823834L69.89640625,138.93461567685583L70.02477430555555,135.75931231214565L70.08895833333334,134.10356434761536L70.28151041666668,135.99425295267451L70.40987847222223,132.7484879039177L70.85916666666667,133.59522116855302L71.18008680555555,134.0245056403729L71.50100694444444,134.19324071179977L71.56519097222223,134.0821871162214L71.69355902777778,136.61851826808405L72.07866319444445,136.55833071506694L72.14284722222222,138.07547701115402L72.33539930555557,129.81813951935936L72.46376736111111,129.27985401602476L72.5279513888889,132.11035519399698L72.7846875,134.66675579110344L73.04142361111111,130.58516905461434L73.42652777777778,129.58194870122642L73.49071180555555,131.14130715797168L73.81163194444444,133.42780300291173L73.94,131.1957628823174L74.19673611111111,132.18848413818452L74.38928819444443,134.83644566732963L74.51765625,136.68888826789635L74.96694444444444,138.3129079589742L75.15949652777779,137.94489852179723L75.48041666666666,140.43972832155083L75.54460069444444,138.7271279155465L75.80133680555555,140.98205722526552L76.05807291666666,137.36442265317442L76.5715451388889,137.4122138704177L76.69991319444443,138.5815094300638L76.82828125,138.9035381558802L76.89246527777779,134.23272847041943L77.21338541666665,134.53153451324556L77.7268576388889,137.30152666626296L78.04777777777777,136.6683667975534L78.17614583333334,134.32597280485368L78.36869791666666,135.01330751801638L78.43288194444445,134.19527126615452L78.56125,136.90631716775428L78.68961805555556,139.4646210948907L78.75380208333334,139.68356266357182L78.8821701388889,139.95106220942995L78.94635416666667,141.74596812375154L79.07472222222222,140.52267925510085L79.13890625,142.359645325504L79.20309027777778,139.6221216097445L79.52401041666666,140.9617722693426L79.90911458333333,142.27063989538235L81.19279513888888,143.33658285700164L81.25697916666667,141.32067875994986L81.70626736111112,142.60076162008014L81.89881944444444,144.20475111283022L81.96300347222223,145.90852253182803L82.09137152777778,146.57331731543974L82.21973958333334,147.1926008447617L82.34810763888888,146.9628582554295L82.73321180555556,136.8425940821448L83.76015625,135.9330451380051L83.82434027777778,137.19822294844823L83.88852430555556,136.02646122731156L83.95270833333333,131.27418182741124L84.14526041666667,133.60126443639456L84.65873263888889,132.9311949585774L84.72291666666666,135.57615333168638L85.30057291666667,138.02762004959777L85.55730902777778,135.01807575670838L85.62149305555556,138.00504453816143L85.7498611111111,135.88993695553694L85.81404513888889,136.53893761480407L86.00659722222221,138.82539590998067L86.07078125,128.52784957295188L86.26333333333334,132.0172129471296L86.39170138888889,134.84544043814122L86.77680555555555,137.0329406984515L87.16190972222222,139.18680949587744L87.35446180555556,141.720532807713L87.48282986111111,143.42814618705086L87.73956597222222,145.68135675365926L87.99630208333332,145.7207782815808L88.0604861111111,147.32809110568812L88.89487847222222,147.23594190826213L89.02324652777779,147.60832353296504L89.40835069444444,143.38002267360037L89.60090277777778,144.30852786626548L89.72927083333333,145.60366072309878L89.98600694444444,147.1618077124823L90.05019097222223,144.47079779344165L90.43529513888889,145.8754139971663L90.56366319444444,147.5711242827985L90.62784722222221,145.13941103955125L91.07713541666668,144.2973323442165L91.2696875,129.3472467937107L91.71897569444444,131.57442499708864L91.84734375000001,132.08552946748912L91.91152777777778,134.07967446771568L91.97571180555555,136.25011067041936L92.61755208333334,138.73101180820058L93.06684027777779,140.6124040867295L93.25939236111111,143.02365564949366L93.45194444444444,142.44909099440127L93.96541666666666,138.43430948163282L94.28633680555555,137.68032781167128L94.92817708333334,137.46213266525743L94.99236111111111,138.12788737430708L95.18491319444445,139.93052086187998L95.44164930555556,142.38705123382442L95.69838541666667,143.08477916004284L95.82675347222222,142.86889140817084L95.95512152777778,144.25995641215192L96.08348958333333,145.88192838074602L96.27604166666666,146.309590548804L96.46859375000001,143.50685853336327L96.53277777777777,144.63485762623563L96.59696180555555,143.692968722533L96.72532986111112,143.24407732780693L97.17461805555556,136.79360071622688L97.30298611111111,138.580802372726L97.75227430555556,138.10362703523614L98.00901041666667,139.27487901637278L98.13737847222222,140.3289932690059L98.58666666666666,142.20645920704274L98.65085069444444,143.25399496575167L98.71503472222223,140.88934522585313L99.10013888888888,142.45632136492335L99.29269097222223,137.44313834619297L99.93453124999999,137.19259383352718L100.06289930555556,138.87992424278093L100.19126736111112,140.11544219221506L100.31963541666667,140.60591876813172L100.83310763888889,135.91868399610465L100.89729166666666,135.85950277270612L100.96147569444445,133.56107309832416L101.02565972222223,119.24716410844432L101.28239583333334,108.39345990091574L101.47494791666666,112.72201986192901L101.86005208333334,115.04818068084725L101.9242361111111,103.85634569592851L102.63026041666667,108.75385734366749L102.88699652777778,112.10165304434429L103.01536458333334,115.63731785053378L103.20791666666666,116.40024254560616L103.33628472222222,119.94737050292063L103.46465277777777,123.03661100424725L103.65720486111111,120.34114932062327L104.10649305555556,111.97511252483143L104.17067708333335,109.79864358747723L104.36322916666667,114.27520998767153L104.42741319444445,114.62712784250166L104.55578125,117.83656237862441L104.61996527777778,106.45573228681229L104.8125173611111,108.83001981426135L104.94088541666667,112.43415728513614L105.26180555555555,116.00244801182946L105.71109375,118.88505182646252L106.03201388888888,121.73209679507177L106.09619791666667,124.77506210061445L106.73803819444446,126.19514734954201L106.86640625,129.1770484908216L107.05895833333332,131.8498104936499L107.50824652777779,132.47502763886567L107.63661458333333,134.41217395756473L107.70079861111111,133.79816297793664L107.7649826388889,134.5996513719294L108.02171875,125.06525633940358L108.15008680555556,128.1564169142204L108.47100694444444,119.01092997735857L108.72774305555556,122.37773872334937L108.79192708333333,125.57366338138509L108.98447916666667,128.332591676455L109.4979513888889,129.75401451144486L109.56213541666668,132.16436796048743L109.62631944444443,134.29107784352948L110.0756076388889,135.97498410187376L110.33234375,138.14601504651043L110.65326388888889,138.46286470916215L110.78163194444444,137.05675684169816L111.03836805555555,139.22933521729684L112.00112847222222,135.83481841531037L112.12949652777779,138.28512137289096L112.32204861111111,140.07721393922668L112.3862326388889,141.39508843919796L112.45041666666665,143.2395750022621L112.51460069444444,143.25745605601875L112.64296875000001,143.04647755787502L112.83552083333333,141.25230394165186L113.02807291666666,143.0545078273494L113.09225694444444,139.85800634753116L113.47736111111111,142.07566603335607L113.73409722222222,142.43958554767372L114.05501736111111,142.92730057341967L114.18338541666667,144.19691975115643L114.44012152777778,146.1500918854968L114.63267361111112,143.92293869096247L114.95359375000001,144.87179077021162L115.14614583333334,145.99302120216933L115.46706597222223,146.23172032278612L115.53125,142.96392269664767L115.72380208333334,139.00565733829453L115.98053819444445,140.13017224605332L116.23727430555556,137.70850871489444L116.55819444444444,137.44276414161465L116.87911458333333,136.81954028284062L117.00748263888889,135.71593522290684L117.20003472222223,135.01182037343068L117.26421875000001,133.2859685700965L117.84187499999999,135.74553607212633L118.48371527777778,136.57238506620473L118.67626736111112,135.4143580184742L119.06137152777778,137.6074114672881L119.44647569444444,137.30138287438555L119.70321180555555,119.12636022270324L119.95994791666666,115.18265708082782L120.4092361111111,116.05644533491876L120.47342013888888,119.72403349940777L120.73015625,120.46517204923943L121.11526041666667,117.60666153895191L121.37199652777778,120.50609099758904L121.5645486111111,122.33960339923682L121.82128472222222,125.70779856041285L123.10496527777778,123.52572645219674L123.36170138888889,124.3283653730367L124.00354166666666,125.9597155702343L124.32446180555556,128.1156618835664L124.45282986111111,129.8182967184191L124.51701388888888,132.39385064686542L124.58119791666667,132.53488461448822L124.64538194444445,123.22847645384122L125.15885416666667,124.35236029123791L125.67232638888889,125.74455691770396L125.73651041666668,129.321263653661L125.86487847222222,131.73335590032357L125.9290625,131.48526668458956L126.69927083333333,125.33392713801422L126.76345486111111,127.920081874849L126.89182291666667,124.98285972853486L127.59784722222221,126.66343115767192L127.79039930555555,125.88537039073358L128.04713541666666,125.04601079746548L128.30387152777777,127.27653935865996L128.56060763888888,118.6248284471449L129.00989583333333,121.04685216801765L129.0740798611111,124.10185483168353L129.1382638888889,127.14873863928979L129.26663194444444,128.8639429056618L129.45918402777778,125.72085080812306L130.2293923611111,124.69262296680498L130.6144965277778,123.74533078633996L130.8070486111111,127.1996289935775L130.8712326388889,120.66176386553776L131.0637847222222,123.98559681393125L131.51307291666666,127.3808461669465L131.705625,128.8219350904229L131.76980902777777,131.48232869057216L132.41164930555556,131.77302303620013L132.6042013888889,134.50506800491968L132.66838541666667,134.8859904180018L132.79675347222224,136.89806210680814L133.05348958333335,138.72843305037978L133.11767361111112,140.61969452756793L133.31022569444445,142.52480811353863L133.56696180555556,129.54199290185383L133.88788194444444,132.20755152153993L134.52972222222223,131.1272309451819L134.59390625,128.996050802157L134.91482638888888,130.89650318012824L135.04319444444445,133.3035317107289L135.55666666666667,134.54433202887134L136.5836111111111,135.11662772615148L137.09708333333333,137.06453339988738L137.22545138888887,129.57763639854986L137.41800347222224,132.70592500517733L137.8031076388889,135.65917846763963L137.86729166666666,136.18687381008868L138.3165798611111,136.2916895353938L138.83005208333333,134.34912860730836L139.08678819444444,136.85163708278583L139.34352430555555,138.61622988386642L139.60026041666666,139.05497977748703L139.7928125,140.7894884269725L139.92118055555557,142.2678332411586L140.30628472222222,144.42047898018222L140.37046875,141.84380781637122L140.43465277777779,142.812201913079L140.49883680555556,144.8209020832393L140.8839409722222,144.0915678204037L140.948125,142.65952099148086L141.39741319444445,144.7801453480223L141.52578125,146.59013733015104L141.71833333333333,147.13448463268418L141.84670138888887,148.73482306761463L141.91088541666667,149.23795121716472L141.97506944444444,149.68658595908147L142.4243576388889,150.1746833325436L142.68109375,151.48918331931407L142.74527777777777,151.90988965412362L142.8736458333333,152.83043195654008L143.19456597222222,152.3741700238496L143.70803819444444,151.388347771541L143.7722222222222,152.05698814034196L144.02895833333332,153.16272715861615L144.1573263888889,151.2518127343211L144.47824652777777,151.3874458256055L144.67079861111114,153.00393176858128L144.73498263888888,148.6920576213531L145.44100694444444,149.65844767584414L146.08284722222223,145.7775811087247L146.2112152777778,147.40115396852255L146.40376736111114,149.31324410163154L146.66050347222222,140.20202353925566L146.72468750000002,139.68987650596165L146.7888715277778,140.89946690971854L146.9814236111111,140.2856308844284L147.17397569444444,142.1286608610795L147.43071180555557,144.35992766360187L147.68744791666666,144.97247380939294L148.90694444444443,143.16788603935527L149.16368055555557,141.6640924799613L149.42041666666665,140.65174335343576L149.61296875,137.3500532915182L149.74133680555556,132.21298588491896L149.99807291666667,134.92432152318688L150.1264409722222,135.29650999332816L150.70409722222223,137.56979260680086L150.9608333333333,135.39387055712243L151.53848958333333,137.4015802707921L151.85940972222224,137.41785154002153L151.92359375,138.2343532478967L151.98777777777778,136.87353063547187L152.43706597222223,136.24737507080525L152.82217013888888,136.7040894558197L153.01472222222222,139.52848701292973L153.20727430555556,140.89473467098313L153.3356423611111,140.96587174901933L153.78493055555558,141.99245842673434L154.04166666666666,142.79700652461767L154.23421875,142.24598175160693L154.61932291666668,144.50301859528565L154.68350694444445,137.63698918427326L154.74769097222222,135.75113094057167L154.94024305555553,136.83800889699174L155.26116319444444,139.52722310167803L155.64626736111111,140.2364558251573L155.71045138888888,142.35093650654696L156.35229166666667,144.29080994702417L156.41647569444444,145.7196223693396L156.67321180555555,146.82658843413085L156.73739583333332,147.59718716598763L156.99413194444446,149.08302128150288L157.1225,150.99114642624258L157.50760416666668,148.9957450027422L157.70015625000002,150.4259289456139L157.9568923611111,151.65897331182836L158.0210763888889,150.5610203600672L158.14944444444444,152.2984620862826L158.21362847222224,153.60657789496835L158.34199652777778,154.25702579039253L159.0480208333333,153.74381084052263L159.17638888888888,153.0813511013284L159.6898611111111,154.28085905429444L159.7540451388889,154.51430068864286L159.94659722222224,155.0029158890668L161.87211805555555,156.25340227950977L162.19303819444445,157.27094979081156L162.51395833333333,158.28494817086812L162.77069444444444,157.07027044459008L162.83487847222224,158.11349871547785L163.28416666666666,158.22113274542806L163.54090277777777,158.86363726234535L163.99019097222222,159.1234266015282L164.054375,154.27970796412245L164.11855902777776,153.86533361227407L164.82458333333332,149.31999807365196L164.88876736111112,150.56672320115572L165.01713541666666,150.93348845879234L165.27387152777777,146.53073440108457L165.59479166666668,147.28770324568586L166.1082638888889,149.0302339098318L166.23663194444447,150.09569020132085L166.36499999999998,150.97348799018798L166.7501041666667,152.38406342698667L166.81428819444446,153.38321279021383L166.94265625,151.0722663772764L167.13520833333334,151.1546800680417L167.2635763888889,151.74502419235225L167.5203125,137.9433607293553L167.58449652777776,140.08229352271474L167.8412326388889,127.23613608456913L167.90541666666667,130.15821150591614L168.16215277777778,131.6087251578934L168.22633680555555,133.00520932760617L168.4188888888889,135.61505756133505L168.48307291666669,137.47200270027295L168.675625,139.53103595505343L169.25328125,138.50922890677475L169.44583333333333,140.08230830628517L170.08767361111111,142.17166873425145L170.7295138888889,142.62049652295624L170.9220659722222,144.03775533652242L171.3713541666667,144.94747272803792L171.8206423611111,147.03187412242193L172.52666666666667,148.42899971681877L172.6550347222222,146.1448671492316L172.97595486111112,147.53084526732218L173.296875,147.6460470804549L173.42524305555557,147.98908752051997L173.5536111111111,149.92745317900813L173.9387152777778,150.15017876526875L174.06708333333333,148.68146452814273L174.25963541666667,148.4424674190616L174.32381944444444,143.56911966588828L174.70892361111112,142.62041910248496L174.96565972222223,141.9204913366442L175.6716840277778,143.76634374159042L175.86423611111113,143.14610211966655L176.18515625,145.1364947478169L177.01954861111113,145.30461227077188L177.46883680555555,145.68775304441274L177.6613888888889,147.25550634006316L178.5599652777778,145.50090028875127L179.26598958333335,145.85676065679493L179.77946180555557,146.67408610338697L180.10038194444445,148.685041316177L180.16456597222222,149.09442785586268L180.48548611111113,149.13218534838057L180.80640625,145.77510840814017L180.99895833333335,136.65526337482277L181.31987847222223,139.1592542033981L181.83335069444445,141.18198855392708L182.0259027777778,143.2735173673989L182.34682291666667,145.4099965669309L182.4751909722222,146.9326331833263L182.539375,146.34715278473584L182.60355902777778,147.5721491939812L182.73192708333335,148.21878467744403L183.11703125,135.8288578758072L183.43795138888888,134.6611650700152L183.56631944444445,135.17612898967673L184.46489583333334,136.4824631755107L184.78581597222222,137.7304035654546L185.17092013888887,139.78301761066757L185.49184027777778,140.4087221990613L185.62020833333335,140.7073010953626L185.7485763888889,121.9763173873101L185.81276041666666,123.03714314544172L186.0053125,122.8086757786085L186.06949652777777,126.10627152739956L187.9950173611111,128.89832837827984L188.18756944444445,131.77456270055802L188.44430555555556,132.51516412836003L188.50848958333333,134.77356465546995L188.70104166666667,134.31374786102862L188.82940972222224,132.18397596254812L188.89359375,133.23139018954845L189.6638020833333,135.5222324608475L190.17727430555558,133.56545379804734L190.3056423611111,135.92990418636236L190.3698263888889,131.44607800581778L190.6265625,121.5244427570955L190.88329861111112,122.43128161623558L191.14003472222223,126.53582798341421L191.58932291666667,129.9479591934612L191.65350694444444,132.18743360884196L191.91024305555555,133.3978520270418L192.16697916666666,135.19150534559435L192.48789930555554,137.51900709811346L192.6162673611111,140.10118857207678L192.80881944444445,140.7650666463373L192.93718750000002,126.24794390876392L193.0013715277778,128.7751777835589L193.12973958333333,125.50252639880519L193.45065972222224,127.27510808666109L193.70739583333332,130.47730049857802L193.7715798611111,133.32540602976337L193.8357638888889,134.71384067329262L193.96413194444446,133.26406418502975L194.0925,134.40269630208027L194.41342013888888,136.90085715165512L194.54178819444445,139.49477916160507L195.05526041666667,141.47936121491233L195.37618055555555,143.2794764646147L196.78822916666667,132.53473423413837L196.85241319444444,134.40329863925115L196.98078125,135.158419184151L197.43006944444446,134.95420820881233L197.55843750000003,134.48715077111967L197.62262152777777,136.74084093066904L197.94354166666668,136.63088546827242L198.00772569444445,133.85623788421194L198.07190972222224,130.21068987676514L198.26446180555556,132.7686151242815L198.32864583333333,129.9601524043523L198.52119791666667,132.47442245460766L198.97048611111111,135.33681106071847L199.09885416666668,138.30305351104693L199.22722222222222,141.21946721405524L199.41977430555553,143.6130598627705L200.12579861111112,141.5894850742753L200.1899826388889,139.8869548271878L200.25416666666666,129.66430170814547L200.76763888888888,132.16717732198754L200.83182291666668,133.21061245547025L201.15274305555556,132.20642247426423L201.21692708333333,134.84468215331353L201.2811111111111,136.84903579355532L201.3452951388889,138.93127829377738L201.47366319444447,128.78015410388082L201.53784722222224,130.55001679722062L201.60203124999998,133.56567845197992L201.79458333333332,132.48934058840626L202.50060763888888,121.32854001133148L202.88571180555556,124.39514614057865L203.0140798611111,127.81038813210003L203.52755208333332,130.61838662207137L203.59173611111112,133.44873728942267L203.6559201388889,136.56671258441733L203.78428819444446,139.09607710621475L204.2335763888889,137.8685359872083L204.42612847222222,134.80499795672858L204.55449652777776,136.474231385807L204.74704861111113,135.8937842503924L204.87541666666667,138.27687965488445L205.0037847222222,140.92861598587294L205.5814409722222,140.529391527603L205.83817708333333,142.40030368545345L205.9665451388889,141.324113560572L206.09491319444447,142.46278294179282L206.22328124999999,137.01272918363955L206.28746527777778,135.96118895302016L206.5442013888889,135.0535898425288L206.6083854166667,136.87069182276042L206.67256944444443,138.27845011488068L206.99348958333334,138.57386461460612L207.31440972222222,140.43429083835014L207.37859375,141.5644186092979L207.63532986111113,140.98717424980978L207.95624999999998,143.21732270565647L208.02043402777778,142.8861349982362L208.08461805555555,144.0202557728151L208.14880208333332,144.07746110592387L208.2771701388889,146.0330139944811L208.3413541666667,147.67712716655686L208.8548263888889,148.05438885492245L208.91901041666668,148.90609914758977L208.98319444444442,148.95660432126576L209.30411458333333,150.08368923919554L209.36829861111113,151.9268118452026L209.6250347222222,153.42865395734242L209.81758680555555,154.38371802370426L210.0101388888889,155.32441780796904L210.13850694444443,154.7307951082291L210.266875,155.28840287346176L210.45942708333334,154.68922022963883L210.5236111111111,154.30864350077294L210.84453125,152.98473901440448L210.9087152777778,148.26708843458823L211.67892361111112,149.5105064990503L211.80729166666666,150.10971256627056L212.64168402777779,151.4246250210398L212.70586805555556,152.59981983927494L213.41189236111111,153.56176385703824L213.4760763888889,154.70906567800276L214.0537326388889,155.04522916305896L214.18210069444444,154.12246391995197L214.31046874999998,155.22183917836367L214.50302083333335,153.98010235956735L214.69557291666666,152.77205501626548L214.888125,152.12649737927762L215.1448611111111,150.4877399795489L215.20904513888888,151.42092378141012L215.5299652777778,143.3800405177819L215.65833333333333,145.5075542311617L215.78670138888887,146.0833550418677L215.85088541666664,135.3585402473597L216.10762152777778,136.075990640429L216.94201388888888,138.93831405182465L217.07038194444445,140.96258047046047L217.13456597222222,141.34165920625347L217.2629340277778,142.43718564686947L217.58385416666667,141.64591085464585L217.7122222222222,141.78149626870436L217.84059027777778,143.5524162093164L217.96895833333335,145.06896916127977L218.48243055555557,146.28241158430984L218.9959027777778,142.12374229030786L219.1884548611111,143.3693696564329L219.25263888888887,145.46221894195827L219.44519097222224,147.46640488315842L219.57355902777778,149.03683771408046L219.63774305555557,150.1882307077317L219.83029513888889,151.58968001319016L220.21539930555556,152.54966422519104L220.47213541666665,154.09579386802778L220.53631944444444,153.65755913829562L221.43489583333334,152.67828057563278L221.62744791666665,153.7182430565159L221.82,155.0185615855597L222.01255208333336,155.03290366411466L222.26928819444444,154.9361208923424L222.46184027777778,140.67712284088367L222.52602430555558,141.7567487967493L222.59020833333335,142.64073044200265L222.9753125,141.49483907982477L223.29623263888888,142.0539667960189L223.36041666666665,127.63769094948918L223.68133680555556,127.54463394534879L223.8097048611111,129.9956356820899L224.25899305555558,130.4242324067459L224.4515451388889,132.97366133038685L224.57991319444446,135.61262209099453L224.64409722222223,138.0207782361989L224.7724652777778,140.42769710187613L224.83664930555557,142.73040466700033L224.9650173611111,142.679278130017L225.3501215277778,143.22947208543013L225.86359375,142.56562503332623L225.92777777777778,141.94449557657867L226.24869791666666,143.6130713625695L226.56961805555557,143.5386709866595L226.89053819444445,144.78349872449053L227.72493055555555,142.22209931751652L227.78911458333332,137.8738066948578L227.85329861111111,137.77059684362138L228.49513888888887,134.967936106786L228.94442708333332,137.16259214151307L229.13697916666666,139.68924497294037L229.45789930555554,142.30776652756424L230.03555555555553,144.79703148577966L230.09973958333333,146.58537353516653L230.1639236111111,148.3146856224992L230.48484375,150.1377954172853L230.86994791666666,149.19398449277244L231.0625,150.53531089580548L231.3192361111111,151.77866059015645L231.38342013888888,151.1844663346182L231.44760416666668,153.00558820731658L231.57597222222222,154.616442599827L231.83270833333333,155.6500186594215L231.8968923611111,151.9517983584233L232.02526041666667,151.77321770435157L232.08944444444444,153.13492023387207L232.34618055555555,154.35418647655897L232.41036458333332,155.4838214857568L232.47454861111112,154.83881594329895L232.79546875000003,155.81511480661595L232.92383680555554,157.22511743696032L233.56567708333333,158.43517398390102L233.6298611111111,158.1243373758563L233.88659722222224,158.4703918647233L234.01496527777778,158.0585140247656L234.33588541666668,156.43517463639031L234.46425347222223,157.8528347578527L234.65680555555554,158.3896841672822L234.7851736111111,158.13031896481667L235.4270138888889,159.1452697057837L235.61956597222223,159.63628865357396L235.81211805555554,160.3080460387422L236.13303819444445,160.10956873608495L236.32559027777776,160.94653005668087L236.71069444444444,161.45733372953978L236.90324652777775,161.4920017975316L237.03161458333332,161.58013690077354L237.35253472222223,160.96456585132378L237.48090277777777,159.7088585057769L237.73763888888888,160.36757518083024L237.80182291666668,159.48785826562008L238.3152951388889,159.8928822609926L238.57203124999998,160.6327112766582L238.63621527777778,153.92315544303167L238.82876736111112,154.9508655099966L238.9571354166667,153.49167623328282L239.4064236111111,151.34894487513532L239.66315972222222,152.55298658796053L239.91989583333333,146.3384166598601L240.17663194444447,145.40289308223055L240.30499999999998,145.80105705745825L240.69010416666669,147.3656283799555L241.4603125,148.38864522284302L241.58868055555556,149.41540137885818L241.71704861111112,148.4880627538802L241.90960069444446,148.35491611768202L242.10215277777777,149.68246306236475L242.29470486111111,147.7119893900588L242.35888888888888,144.92733007815207L242.67980902777776,142.72101317529356L243.19328124999998,141.3960448963239L243.5783854166667,143.12987954854052L243.7709375,143.035942241355L243.83512152777777,145.0607330282081L244.34859375,145.70435720250694L244.8620659722222,147.78933332248712L245.4397222222222,146.06317369327874L245.69645833333334,146.2346308816053L246.1457465277778,148.31432216561615L246.53085069444444,149.26790707758045L246.65921875,150.30202595532882L246.85177083333335,151.87130383747441L247.36524305555557,153.33629514387215L247.4936111111111,154.60838801713334L247.5577951388889,155.59203106181963L247.94289930555556,155.66817459744692L248.07126736111113,156.67088237760586L248.1354513888889,155.90694119261545L248.19963541666664,155.52506523390218L248.45637152777778,153.57112947596522L248.52055555555555,153.341831672383L248.58473958333335,154.4769882398913L248.7131076388889,155.03207719031246L248.90565972222223,150.16178494418787L249.03402777777777,148.5894752419422L249.35494791666665,148.9661297012507L249.41913194444444,149.99719559462267L249.61168402777778,148.6861444683878L249.93260416666666,150.38410182241833L249.99678819444443,151.38817378467482L250.18934027777777,152.25761868801035L250.51026041666665,153.5447380965815L250.63862847222222,154.17336636216064L250.83118055555556,152.7507665397291L250.89536458333333,153.62334299893794L250.95954861111113,152.84752607243408L251.15210069444444,153.36767641880274L251.53720486111112,153.2167472842336L251.79394097222223,149.78786033507666L252.05067708333334,150.80670252859593L252.17904513888888,151.50270863545688L252.4999652777778,133.09307590059655L252.56414930555556,135.9117948102696L252.69251736111113,136.12586549693617L252.88506944444444,133.02362392988L253.20598958333335,134.723010250799L253.84782986111114,137.73169663158703L253.91201388888888,138.8659940192182L254.16875,140.02989174003096L254.29711805555556,141.42750936804944L254.61803819444444,143.95454516578204L254.74640625,146.16935730100474L254.87477430555558,145.83907527803308L255.0031423611111,147.30148980723354L255.19569444444443,148.54542201567583L255.51661458333334,150.4114162607946L255.5807986111111,151.92650013827313L255.64498263888888,149.64252020481098L255.70916666666665,148.18120647422927L255.77335069444445,149.6146381098776L255.83753472222222,150.97879986387403L256.0942708333333,152.3594768399877L256.22263888888887,153.4917907370989L256.35100694444446,153.8148226906004L256.5435590277778,153.3531237255864L256.7361111111111,153.50236083274234L256.8002951388889,154.49374903231032L256.9928472222222,152.35286443442425L257.6988715277778,153.76927480794924L258.01979166666666,154.65176711545294L258.08397569444446,143.96289782784945L258.4690798611111,142.31439831302697L258.79,142.7122429779488L259.0467361111111,142.50570833712774L259.1109201388889,142.72500316431564L259.4318402777778,142.6361504486615L259.6243923611111,143.96690179225044L260.0094965277778,146.40673104080668L260.2662326388889,144.93226665399L260.52296875,143.85841249673177L260.65133680555556,141.68653122544848L261.03644097222224,130.59021607771186L261.2289930555556,131.1745360007329L261.48572916666666,133.91099598097549L261.6140972222222,135.42868185953932L261.67828125,137.5446657270715L261.87083333333334,139.36504851737376L261.9350173611111,140.09887575641642L262.1917534722222,142.58187602212035L262.38430555555556,138.35876421766687L262.4484895833333,140.59360365292116L262.5126736111111,138.63292943700958L262.64104166666664,134.06886206627613L263.21869791666666,135.61849813197992L263.7321701388889,137.38906101430882L264.0530902777778,140.2278551485911L264.11727430555555,140.77678383804513L264.1814583333333,142.7952979454922L264.2456423611111,143.64063247174903L264.43819444444443,145.34315287995844L264.6949305555555,144.35063253222026L265.01585069444445,144.85539360101873L265.14421875,146.64060157262278L265.721875,143.09854364464655L265.91442708333335,144.51387142660346L266.68463541666665,144.76790320585187L266.8771875,145.60311164234943L267.00555555555553,147.88233533258082L267.13392361111113,147.10343617116294L267.32647569444447,148.31375407899964L267.45484375,146.55021299308862L267.58321180555555,145.73110579563664L267.7115798611111,146.9586602301469L267.7757638888889,145.22655469402284L267.8399479166667,147.4064206657135L268.61015625,149.05868194093748L268.99526041666667,150.72366947243933L269.5729166666667,144.73222308405875L269.6371006944444,145.6399147546433L270.0863888888889,142.29802765636524L270.34312500000004,144.1941405102754L270.4073090277778,145.92305064888654L270.72822916666667,147.9254068662845L270.79241319444446,150.03701529017633L270.98496527777775,139.6410785486559L271.49843749999997,126.78153522520499L271.6909895833333,130.45573489841664L271.7551736111111,133.60123118579472L272.07609375,135.25205385125696L272.3328298611111,136.17939504001072L272.52538194444446,131.1767066005114L272.58956597222226,133.5311038018904L272.71793402777774,136.68746239020993L272.78211805555554,139.25194355203217L272.9746701388889,139.35399397790306L273.0388541666667,141.88594742622783L273.1030381944445,142.14504551670032L273.5523263888889,144.46404868627423L273.68069444444444,146.66987323546178L273.8090625,145.8093211328099L274.1299826388889,144.2283089399725L274.57927083333334,144.70531287842266L274.7718229166667,145.46612597185785L274.8360069444445,146.17837599994925L274.9001909722222,147.6544326698878L274.96437499999996,148.75453339971332L275.02855902777776,150.7178569624162" style="fill: none;" fill="none"></path></g></g></g></g><g opacity="0.2"><g><g><g><path stroke="rgb(255, 112, 67)" stroke-width="2px" d="M32.41293402777778,25.42157884077593L33.054774305555554,100.56817798181012L33.11895833333333,132.10448155078024L33.311510416666664,165.4505059434609L33.37569444444444,126.92823308164424L33.43987847222222,115.79807962612674L33.56824652777778,46.53873330896552L33.82498263888889,59.07699342207476L33.88916666666667,143.24775539744985L34.723559027777775,111.43030332977122L35.172847222222224,112.46058971773496L35.23703125,149.4864126741886L35.30121527777778,109.9604598608884L35.622135416666666,109.3511097647927L36.00723958333333,99.39374472336337L36.13560763888889,154.1199416301467L36.19979166666666,137.0387101146308L36.39234375,151.98936226422137L36.45652777777778,145.5256466404958L36.64907986111111,162.29129342599347L36.71326388888889,159.88401455364445L37.098368055555554,163.1682304469022L37.41928819444445,140.6686010794206L37.86857638888889,149.4882181666114L38.510416666666664,148.48628496310928L38.767152777777774,131.1603552753275L38.95970486111111,148.93400632251394L39.023888888888884,155.53791495615786L39.60154513888889,163.17134270342913L39.922465277777775,161.54190497371283L40.179201388888885,130.61664549870923L40.24338541666667,146.37461890957573L40.371753472222224,167.28622777624562L40.50012152777778,146.17250925844365L40.88522569444444,-12.81544180349867L40.94940972222222,146.76349991830915L41.39869791666667,128.8899953094396L41.527065972222225,162.17847892235625L41.591249999999995,156.6617824381048L41.783802083333335,153.21206906708804L42.23309027777778,153.51603678410703L42.425642361111116,84.53393785520035L42.55401041666667,133.32737297903407L42.682378472222226,125.78454834222794L43.06748263888889,143.61235696890137L43.13166666666667,153.45518953149968L43.195850694444445,155.2750443707813L43.51677083333333,146.63360516862437L43.96605902777778,120.01946957002988L44.03024305555555,147.7342602041635L44.094427083333336,161.22047217461196L44.351163194444446,162.75269384817645L44.41534722222222,97.27795217253946L44.47953125,145.75658182935283L44.92881944444444,162.526356311007L45.12137152777778,149.25153321569616L45.18555555555555,94.64036032286558L45.24973958333334,158.30738807672805L45.31392361111111,126.32728463953192L45.44229166666666,166.77964448657903L45.69902777777777,145.6481132155115L45.827395833333334,126.42709264430134L45.95576388888889,155.35058972239494L46.276684027777776,159.1684868769212L46.34086805555555,154.28232565251264L46.53342013888889,134.25181387229398L46.85434027777777,140.4446600756862L47.496180555555554,163.48702334273946L47.81710069444445,159.59727334434336L47.88128472222222,81.79210219599985L47.94546875,132.096415579319L48.71567708333333,118.68903025713834L48.77986111111111,144.0463728904724L48.84404513888889,37.32022947614844L49.55006944444444,6.674937616695075L49.74262152777778,147.619461577047L49.87098958333333,135.34241761402652L49.99935763888889,166.6122276241129L50.25609375,117.92804277485068L50.44864583333333,134.46361995285207L50.64119791666667,158.81262384084138L50.769565972222225,144.83306646076116L51.09048611111111,153.44642821767113L51.21885416666667,140.00504065372726L51.283038194444444,163.8149216269905L51.79651041666667,150.7781477922743L51.924878472222225,130.8096725398844L52.181614583333335,125.82825900207868L52.438350694444445,155.4571521390568L52.56671875,157.4434467648918L52.63090277777778,157.5858792567795L52.82345486111111,154.7353124320507L53.78621527777778,149.12212280793622L53.850399305555555,133.4982162009586L54.17131944444444,152.51391895521772L54.2996875,145.64807964725927L54.36387152777778,137.16577074473554L54.74897569444445,104.92986883358523L54.87734375,104.43867898529227L55.13407986111111,163.09616540372372L55.39081597222222,112.77235246246512L55.519184027777776,151.16830919005653L55.58336805555555,149.28496000170708L55.64755208333334,149.1584724296223L55.71173611111111,167.52095917476848L56.41776041666667,7.86066419428046L56.931232638888886,167.47611798413774L57.18796875,156.4421117955988L57.31633680555556,137.00597147779033L57.637256944444445,124.6580745252696L57.95817708333333,147.63170439817688L58.08654513888889,5.946161270141621L58.407465277777774,132.65938394178045L58.72838541666667,132.26493779637596L58.79256944444444,152.2219518883662L59.17767361111111,154.31073158708486L59.24185763888889,154.10573746399447L59.49859375,164.7528090029955L60.14043402777778,140.98817323825577L60.20461805555555,136.72735258665952L60.33298611111111,168.48721112446353L60.58972222222222,105.71016285636209L60.65390625,165.3943438597701L60.78227430555555,163.48637595501813L61.03901041666667,152.28953437100756L61.167378472222225,158.92524772476065L61.424114583333335,141.47380514307454L61.74503472222222,158.94881143895063L62.00177083333333,168.57621674578297L62.06595486111111,168.83748804371464L62.194322916666664,150.69591516527265L62.322690972222226,154.11057608777827L62.579427083333336,154.83538418737325L62.643611111111106,151.1227738559246L62.96453125,160.62274868244475L63.02871527777778,91.83925272117963L63.41381944444444,99.01337806203149L63.5421875,144.2338347949765L63.86310763888889,58.66742238131437L64.11984375,158.96141511879185L64.82586805555556,96.29627261378549L64.89005208333333,76.24338519573212L64.95423611111111,169.1126619929617L65.0184201388889,153.33417837999085L65.08260416666667,165.28897431492805L65.14678819444444,160.43016402287915L65.33934027777778,155.49157398397273L65.40352430555555,164.99087145111778L65.46770833333333,34.266947572881534L66.36628472222222,155.43071714043617L66.43046875,164.9014899852601L66.55883680555556,164.35100781375712L66.62302083333333,160.29296937720343L66.68720486111111,157.7637694139372L66.81557291666667,154.63144266876307L66.94394097222222,98.11360983415082L67.07230902777778,165.36344907906923L67.20067708333333,160.9458395134319L67.45741319444444,162.36048838360742L67.58578125000001,148.22899869626218L67.84251736111112,59.32137988914143L68.22762152777777,166.03894301842558L68.35598958333333,157.8981922810728L68.61272569444444,136.89965362982318L68.93364583333333,132.58115073225716L69.63967013888889,115.33565776998347L69.70385416666667,143.74711671742529L69.89640625,136.28657745773143L70.02477430555555,99.73336432196878L70.08895833333334,115.31799127838828L70.28151041666668,157.44538653032347L70.40987847222223,95.92309914935718L70.85916666666667,143.2019802900878L71.18008680555555,138.89502726901662L71.50100694444444,136.1076538779519L71.56519097222223,132.82220914688978L71.69355902777778,165.39490732686087L72.07866319444445,135.87546227736905L72.14284722222222,155.2885268195109L72.33539930555557,36.133064259182326L72.46376736111111,123.17264100096442L72.5279513888889,164.2243056446314L72.7846875,163.67085028507492L73.04142361111111,84.27680504322052L73.42652777777778,118.19973461736332L73.49071180555555,148.83328478173777L73.81163194444444,159.369647026062L73.94,105.87175562706861L74.19673611111111,143.45157942717725L74.38928819444443,164.8793637115847L74.51765625,157.7061051509597L74.96694444444444,156.73851226947525L75.15949652777779,133.76958195187828L75.48041666666666,168.7452640662139L75.54460069444444,119.2965149175037L75.80133680555555,166.5657595721158L76.05807291666666,96.31990466334604L76.5715451388889,137.95443764870816L76.69991319444443,151.84796079722318L76.82828125,142.55717252872208L76.89246527777779,81.23922349106182L77.21338541666665,137.92169181867078L77.7268576388889,168.72896727919579L78.04777777777777,129.48473842035642L78.17614583333334,107.7499233159152L78.36869791666666,142.81158631227234L78.43288194444445,124.91409478946164L78.56125,167.66497297110882L78.68961805555556,168.4903155883605L78.75380208333334,142.16760337081823L78.8821701388889,142.98602613264865L78.94635416666667,162.11039411479777L79.07472222222222,126.64363664388657L79.13890625,163.20127239687875L79.20309027777778,108.5630566802892L79.52401041666666,156.16101844473317L79.90911458333333,157.12063167311928L81.19279513888888,155.43042941256002L81.25697916666667,118.44887818531558L81.70626736111112,157.12417072599584L81.89881944444444,162.40310088206422L81.96300347222223,165.23896601118824L82.09137152777778,154.1158654852347L82.21973958333334,154.21879293972796L82.34810763888888,144.35627259720457L82.73321180555556,22.021325891668155L83.76015625,125.61359482461756L83.82434027777778,151.55252421173185L83.88852430555556,122.73202891783282L83.95270833333333,77.35634539344095L84.14526041666667,160.00359665670177L84.65873263888889,125.32880177281119L84.72291666666666,165.58500194143164L85.30057291666667,165.84117446162483L85.55730902777778,100.87275232510135L85.62149305555556,171.89423347129062L85.7498611111111,111.89260529929942L85.81404513888889,143.9022907587615L86.00659722222221,164.7668177539652L86.07078125,11.695194417780106L86.26333333333334,171.60640968585557L86.39170138888889,166.93360167877242L86.77680555555555,161.85161645845935L87.16190972222222,163.62391347641295L87.35446180555556,170.4673441777175L87.48282986111111,162.80217944627458L87.73956597222222,171.2455605654554L87.99630208333332,146.16804228316653L88.0604861111111,165.5641464658759L88.89487847222222,146.19044669378889L89.02324652777779,151.83324591409075L89.40835069444444,95.40707838535309L89.60090277777778,154.84304973754016L89.72927083333333,160.29782238738105L89.98600694444444,164.84004329957745L90.05019097222223,113.93946304646406L90.43529513888889,161.81173857369205L90.56366319444444,166.81010887433183L90.62784722222221,117.54997314106336L91.07713541666668,134.74337776682594L91.2696875,-40.27162502028722L91.71897569444444,156.84327398917893L91.84734375000001,137.88435672900894L91.91152777777778,156.7046035392718L91.97571180555555,160.87518313798037L92.61755208333334,166.87851977348328L93.06684027777779,161.9580769714984L93.25939236111111,170.38094189424407L93.45194444444444,135.93026484684512L93.96541666666666,92.88388713923368L94.28633680555555,129.12589380416006L94.92817708333334,134.98656057227743L94.99236111111111,145.6813266033476L95.18491319444445,160.38262178681114L95.44164930555556,170.25805631550875L95.69838541666667,151.00097624822095L95.82675347222222,140.41949827291748L95.95512152777778,160.04253343154085L96.08348958333333,164.28430170227182L96.27604166666666,151.16170823303136L96.46859375000001,111.70796073024924L96.53277777777777,157.43277325955304L96.59696180555555,133.00659955631602L96.72532986111112,138.15109965205193L97.17461805555556,63.608563607389286L97.30298611111111,158.85781869698656L97.75227430555556,132.68974882364273L98.00901041666667,152.56352803652936L98.13737847222222,152.28863522139463L98.58666666666666,163.50758509608832L98.65085069444444,155.13899943774396L98.71503472222223,114.06078830090436L99.10013888888888,160.2347296584736L99.29269097222223,80.56517298655078L99.93453124999999,134.3499962145632L100.06289930555556,158.02383345365524L100.19126736111112,154.13323226029223L100.31963541666667,146.17070856148547L100.83310763888889,82.73882281780243L100.89729166666666,135.18805160847577L100.96147569444445,107.48382778059354L101.02565972222223,-43.153852701187134L101.28239583333334,-14.749184131622314L101.47494791666666,161.83247176490048L101.86005208333334,141.44005466320297L101.9242361111111,-23.12262160127812L102.63026041666667,164.31945245780727L102.88699652777778,150.0846684629267L103.01536458333334,155.75183583660558L103.20791666666666,125.05614124644886L103.33628472222222,160.1919457221573L103.46465277777777,158.08614212410018L103.65720486111111,89.75930626825854L104.10649305555556,17.056744434616785L104.17067708333335,85.10512564399026L104.36322916666667,165.06489544158632L104.42741319444445,118.61987486210737L104.55578125,154.24977643652394L104.61996527777778,-22.66751282865348L104.8125173611111,135.76792398366064L104.94088541666667,153.32554414597425L105.26180555555555,156.48712921955368L105.71109375,151.59014942700213L106.03201388888888,154.0337551425804L106.09619791666667,159.29956970296124L106.73803819444446,142.3069787540219L106.86640625,163.00874168628997L107.05895833333332,162.17411025410348L107.50824652777779,139.5685406814922L107.63661458333333,156.39041428945282L107.70079861111111,126.8317914930257L107.7649826388889,143.6930814222856L108.02171875,16.89107072353365L108.15008680555556,163.22773257168856L108.47100694444444,15.249170780181904L108.72774305555556,160.57647005129945L108.79192708333333,161.83359869908202L108.98447916666667,159.63450653038242L109.4979513888889,145.88102173805237L109.56213541666668,159.51146449961445L109.62631944444443,158.42004552889955L110.0756076388889,155.08004399592227L110.33234375,162.77783527022058L110.65326388888889,142.05773927677762L110.78163194444444,121.10350832072172L111.03836805555555,163.87871209599754L112.00112847222222,97.32172037796542L112.12949652777779,166.0854722125964L112.32204861111111,160.4097209572792L112.3862326388889,156.34726949442518L112.45041666666665,164.16652748936957L112.51460069444444,143.4603287523443L112.64296875000001,140.65278323942965L112.83552083333333,120.89618599956687L113.02807291666666,163.50173462927341L113.09225694444444,103.59152659502897L113.47736111111111,167.23652098734271L113.73409722222222,146.5684995434501L114.05501736111111,148.4607587050308L114.18338541666667,158.601611409675L114.44012152777778,168.31015597757968L114.63267361111112,118.65437343445691L114.95359375000001,155.63716189156878L115.14614583333334,158.71414178203452L115.46706597222223,148.93992392583326L115.53125,105.88853975317694L115.72380208333334,94.09644913673401L115.98053819444445,152.88855743408203L116.23727430555556,110.2330916144631L116.55819444444444,134.42771151390943L116.87911458333333,129.74864242835477L117.00748263888889,123.19478645649824L117.20003472222223,127.02315930344842L117.26421875000001,113.70500798658892L117.84187499999999,163.65099945935336L118.48371527777778,145.95354834469885L118.67626736111112,122.27575484730981L119.06137152777778,162.489091954448L119.44647569444444,133.82928069071338L119.70321180555555,-87.08161282539363L119.95994791666666,70.43866711313075L120.4092361111111,125.97016639059241L120.47342013888888,161.33531156317756L120.73015625,128.8738921393048L121.11526041666667,85.17491883581336L121.37199652777778,153.40208695422518L121.5645486111111,143.14204657348722L121.82128472222222,163.9222597100518L123.10496527777778,98.76863673058423L123.36170138888889,133.4348489317027L124.00354166666666,144.46849126436493L124.32446180555556,152.57633672248232L124.45282986111111,149.13584502989596L124.51701388888888,161.6152587980032L124.58119791666667,134.13501074097374L124.64538194444445,17.640956705266788L125.15885416666667,137.10358555750415L125.67232638888889,141.53997296365827L125.73651041666668,169.90143020112407L125.86487847222222,159.10018027912486L125.9290625,128.6705260764469L126.69927083333333,55.542803146622404L126.76345486111111,157.2617633952336L126.89182291666667,91.65808006850156L127.59784722222221,145.73065514998004L127.79039930555555,117.05774267695166L128.04713541666666,115.52290627631275L128.30387152777777,152.58340044184163L128.56060763888888,20.4652935374867L129.00989583333333,148.52635586532682L129.0740798611111,158.76293443549764L129.1382638888889,161.71770430830392L129.26663194444444,148.32409995252436L129.45918402777778,90.06033676320857L130.2293923611111,113.02667992765254L130.6144965277778,112.9976577758789L130.8070486111111,166.3909876658158L130.8712326388889,46.48524469679053L131.0637847222222,161.6967385370623L131.51307291666666,165.90225549313155L131.705625,145.17206744443286L131.76980902777777,161.66630052436483L132.41164930555556,135.0711477723989L132.6042013888889,165.50197326730597L132.66838541666667,139.2078138454394L132.79675347222224,159.72638163783333L133.05348958333335,159.49523424966767L133.11767361111112,162.07734017615968L133.31022569444445,164.139615342021L133.56696180555556,-17.75686116652052L133.88788194444444,162.45012400908902L134.52972222222223,118.87026045539163L134.59390625,104.8163649819114L134.91482638888888,152.45842583883893L135.04319444444445,160.6129047924822L135.55666666666667,148.62205415693197L136.5836111111111,141.60971100763842L137.09708333333333,159.16484592042187L137.22545138888887,44.63370622288099L137.41800347222224,168.1984833939509L137.8031076388889,169.1658442948352L137.86729166666666,142.17393578182566L138.3165798611111,137.48089511015198L138.83005208333333,112.3094558553262L139.08678819444444,165.24429497122765L139.34352430555555,158.63673339242285L139.60026041666666,144.0328952372074L139.7928125,160.46866680817172L139.92118055555557,159.0406589724801L140.30628472222222,168.8437065624378L140.37046875,112.60972387140448L140.43465277777779,153.79929049177602L140.49883680555556,167.61096944592217L140.8839409722222,135.8167753815651L140.948125,126.41197733987461L141.39741319444445,168.84006860310382L141.52578125,167.12572537430307L141.71833333333333,153.31047439846125L141.84670138888887,166.8917492614551L141.91088541666667,154.94628170403567L141.97506944444444,154.77665173465556L142.4243576388889,155.71247945861384L142.68109375,166.40307823094454L142.74527777777777,156.6830886873332L142.8736458333333,163.274609437043L143.19456597222222,147.1975685899908L143.70803819444444,140.20352493361995L143.7722222222222,159.64316713945433L144.02895833333332,165.70808713138103L144.1573263888889,129.57119105620816L144.47824652777777,152.9262953427705L144.67079861111114,171.34406240555373L144.73498263888888,99.77091760527006L145.44100694444444,160.62279903482306L146.08284722222223,101.74651474844327L146.2112152777778,165.82169048894536L146.40376736111114,171.0072049945593L146.66050347222222,36.82903962785549L146.72468750000002,133.8792206590826L146.7888715277778,154.62309136715803L146.9814236111111,133.32124437527224L147.17397569444444,163.03908738629386L147.43071180555557,169.67516459592363L147.68744791666666,151.922225759788L148.90694444444443,122.69361245090312L149.16368055555557,124.60253345424479L149.42041666666665,129.16595511544836L149.61296875,99.8901376507499L149.74133680555556,73.92946802486072L149.99807291666667,165.68626536970788L150.1264409722222,139.5192409076474L150.70409722222223,163.36172744360837L150.9608333333333,110.70655742558567L151.53848958333333,160.18041023205626L151.85940972222224,137.60246013782242L151.92359375,147.49811953848058L151.98777777777778,121.43407408215784L152.43706597222223,129.14321502230385L152.82217013888888,141.88582426851445L153.01472222222222,171.5731950991533L153.20727430555556,156.39574205062607L153.3356423611111,141.7729702022943L153.78493055555558,153.63978135043925L154.04166666666666,151.92515099319547L154.23421875,135.9942315491763L154.61932291666668,170.11063414270228L154.68350694444445,59.73722339760175L154.74769097222222,114.35478864474729L154.94024305555553,149.16937731612813L155.26116319444444,170.03818426348946L155.64626736111111,148.28318265080452L155.71045138888888,166.34115559540012L156.35229166666667,166.29999132725325L156.41647569444444,161.93046948178247L156.67321180555555,159.38587008281186L156.73739583333332,156.34015302495524L156.99413194444446,165.94081822173163L157.1225,172.64012183384463L157.50760416666668,126.35656095092948L157.70015625000002,166.65233689004725L157.9568923611111,165.64869889887896L158.0210763888889,138.10399859872732L158.14944444444444,172.0109182145785L158.21362847222224,168.44803997129202L158.34199652777778,161.63679882613096L159.0480208333333,147.9210387549617L159.17638888888888,145.56529554182833L159.6898611111111,167.89009126140311L159.7540451388889,157.16285454007712L159.94659722222224,160.5465871136297L161.87211805555555,170.44101947478273L162.19303819444445,168.8157172338529L162.51395833333333,169.78944831002843L162.77069444444444,143.28892685879362L162.83487847222224,169.9496318135749L163.28416666666666,159.44231390004808L163.54090277777777,166.15328727527097L163.99019097222222,162.07091305472633L164.054375,99.32443107800052L164.11855902777776,149.16397522525355L164.82458333333332,97.75008004903793L164.88876736111112,164.71166631443933L165.01713541666666,155.09468934481794L165.27387152777777,96.57850009202957L165.59479166666668,155.87602877887812L166.1082638888889,168.80042749440128L166.23663194444447,162.1840152862397L166.36499999999998,160.93269994042137L166.7501041666667,168.387999555604L166.81428819444446,164.7192407507788L166.94265625,124.85301016135648L167.13520833333334,152.08971934968775L167.2635763888889,158.44287913360378L167.5203125,-18.645882758227238L167.58449652777776,164.34993842515078L167.8412326388889,-18.512242750688L167.90541666666667,163.311141286384L168.16215277777778,148.06578745625237L168.22633680555555,148.8492704629898L168.4188888888889,165.22555789215997L168.48307291666669,158.54030619019812L168.675625,162.8921663395383L169.25328125,126.91613412445243L169.44583333333333,157.9299622340636L170.08767361111111,165.87688149105418L170.7295138888889,147.71275254542178L170.9220659722222,160.11751891266215L171.3713541666667,155.2688342441212L171.8206423611111,170.68082327598876L172.52666666666667,164.28033825077793L172.6550347222222,120.22983221574262L172.97595486111112,163.25570811331272L173.296875,148.9530898738991L173.42524305555557,151.88111424175176L173.5536111111111,171.91952774876899L173.9387152777778,152.67715177481824L174.06708333333333,132.0179042328488L174.25963541666667,145.73088293454865L174.32381944444444,88.27768034284766L174.70892361111112,131.8567670312795L174.96565972222223,133.97933557358655L175.6716840277778,164.70879263227636L175.86423611111113,136.10903976722196L176.18515625,167.71885061534968L177.01954861111113,147.21201972257006L177.46883680555555,150.0347452786836L177.6613888888889,165.04273200306025L178.5599652777778,125.59370323744687L179.26598958333335,149.89423816583374L179.77946180555557,155.9471982690421L180.10038194444445,171.50069366869602L180.16456597222222,153.73919612711126L180.48548611111113,149.56056973879987L180.80640625,107.6867910244248L180.99895833333335,33.184428984468646L181.31987847222223,167.56873039427128L181.83335069444445,164.13128322227433L182.0259027777778,167.00333193012258L182.34682291666667,169.64980378137395L182.4751909722222,164.20797948539257L182.539375,139.7044801143083L182.60355902777778,161.47056524455547L182.73192708333335,155.5553033108061L183.11703125,-4.743274602023013L183.43795138888888,121.4128973104737L183.56631944444445,141.01874432509595L184.46489583333334,151.30371153083715L184.78581597222222,151.88913465629923L185.17092013888887,163.07131770388648L185.49184027777778,147.50776561552829L185.62020833333335,144.09488141265783L185.7485763888889,-90.53941134973005L185.81276041666666,135.07293168523094L186.0053125,120.21655836972324L186.06949652777777,163.51973440565845L187.9950173611111,160.57610919258812L188.18756944444445,164.4073940854181L188.44430555555556,140.91779020428658L188.50848958333333,160.39665211737156L188.70104166666667,129.0968141068112L188.82940972222224,108.02026763287458L188.89359375,145.1150158020583L189.6638020833333,161.51339353891936L190.17727430555558,111.3644711917097L190.3056423611111,162.75619933280078L190.3698263888889,80.57402541420679L190.6265625,8.956753947518111L190.88329861111112,132.71998422796077L191.14003472222223,173.10469355671242L191.58932291666667,168.66090465066108L191.65350694444444,157.59579148211262L191.91024305555555,147.13087087056854L192.16697916666666,155.54172015731984L192.48789930555554,163.92609488286755L192.6162673611111,169.39779072729024L192.80881944444445,148.2972141802311L192.93718750000002,-38.45867085456848L193.0013715277778,157.44836211610925L193.12973958333333,88.372074268081L193.45065972222224,147.38625094023618L193.70739583333332,166.8083477399566L193.7715798611111,165.63909717987883L193.8357638888889,150.46657446839592L193.96413194444446,116.8153655095534L194.0925,147.32125081528318L194.41342013888888,165.24418827214024L194.54178819444445,168.92458566955546L195.05526041666667,163.9957921653986L195.37618055555555,163.7030062729662L196.78822916666667,10.628337816758597L196.85241319444444,155.60343059355563L196.98078125,143.72577450221235L197.43006944444446,132.63729603182188L197.55843750000003,129.18806700272992L197.62262152777777,162.31048607419837L197.94354166666668,135.38336608626625L198.00772569444445,102.37597702308133L198.07190972222224,88.84947236017749L198.26446180555556,161.7900139201771L198.32864583333333,98.0962358658964L198.52119791666667,161.00052339515904L198.97048611111111,167.81255339424717L199.09885416666668,171.95708822526714L199.22722222222222,174.30816095559433L199.41977430555553,170.76999374140394L200.12579861111112,118.63065506653354L200.1899826388889,120.57059313492343L200.25416666666666,13.68136076493698L200.76763888888888,160.5640006444671L200.83182291666668,145.04909255016935L201.15274305555556,120.81320528008722L201.21692708333333,164.77752962302077L201.2811111111111,159.58978882296518L201.3452951388889,162.5557333271612L201.47366319444447,13.608757430856889L201.53784722222224,150.6303108117797L201.60203124999998,167.7804075967182L201.79458333333332,120.27755667946555L202.50060763888888,-5.298320856961323L202.88571180555556,159.18787494030866L203.0140798611111,166.55862751738593L203.52755208333332,162.4770361564376L203.59173611111112,165.56098745356906L203.6559201388889,171.94225944985044L203.78428819444446,167.79343507574364L204.2335763888889,123.94124847650528L204.42612847222222,100.04707882079212L204.55449652777776,155.41281806880778L204.74704861111113,129.30821736834267L204.87541666666667,165.3147151700475L205.0037847222222,171.01436522264373L205.5814409722222,135.99991897019476L205.83817708333333,163.62707248871976L205.9665451388889,129.1140058474107L206.09491319444447,155.38176024231043L206.22328124999999,75.17816864360462L206.28746527777778,124.03075102784418L206.5442013888889,124.75626166300341L206.6083854166667,157.48694762316617L206.67256944444443,154.25042382424527L206.99348958333334,141.9255427040837L207.31440972222222,161.54208959910002L207.37859375,154.38648554140872L207.63532986111113,134.43794503537092L207.95624999999998,168.51987123557112L208.02043402777778,139.1285855770111L208.08461805555555,156.8876260424202L208.14880208333332,144.7264944531701L208.2771701388889,168.22008935971692L208.3413541666667,166.3307074768977L208.8548263888889,152.33467887477443L208.91901041666668,158.56933073970404L208.98319444444442,149.5296198102561L209.30411458333333,162.87123293768275L209.36829861111113,172.838289313357L209.6250347222222,170.468072488904L209.81758680555555,165.2195683568716L210.0101388888889,165.99729560722005L210.13850694444443,147.99574250253767L210.266875,161.6148415925828L210.45942708333334,147.89108628305524L210.5236111111111,149.9907420954921L210.84453125,137.9641436690634L210.9087152777778,94.74213926358655L211.67892361111112,163.61792873658916L211.80729166666666,156.9081122672016L212.64168402777779,166.3431996621869L212.70586805555556,165.93320302394304L213.41189236111111,164.47567191042683L213.4760763888889,167.72598386894572L214.0537326388889,158.8592321601781L214.18210069444444,143.65306566791102L214.31046874999998,167.69499797441742L214.50302083333335,139.89175499569285L214.69557291666666,139.06593762744558L214.888125,144.80220764604482L215.1448611111111,131.89492454312065L215.20904513888888,162.00852765684778L215.5299652777778,52.15076003291391L215.65833333333333,169.64564191753215L215.78670138888887,152.61620621518657L215.85088541666664,13.67823412201623L216.10762152777778,144.2159525074742L216.94201388888888,171.41331670704213L217.07038194444445,163.92925749177283L217.13456597222222,145.64256486296654L217.2629340277778,154.8666769916361L217.58385416666667,132.6683610515161L217.7122222222222,143.31980485536835L217.84059027777778,163.64470541206273L217.96895833333335,162.2752921594815L218.48243055555557,160.04973981597206L218.9959027777778,94.94081536206333L219.1884548611111,157.50185792148113L219.25263888888887,169.2070151567459L219.44519097222224,170.20525525307113L219.57355902777778,166.85446452417156L219.63774305555557,163.2515660307624L219.83029513888889,167.49007398499683L220.21539930555556,163.44133695147255L220.47213541666665,171.63768450712615L220.53631944444444,148.68548856269229L221.43489583333334,141.56770033998922L221.62744791666665,165.5173235494982L221.82,169.77155822989616L222.01255208333336,155.19562428376892L222.26928819444444,153.8380546298894L222.46184027777778,-21.10089208862998L222.52602430555558,154.0058383453976L222.59020833333335,152.67010244185275L222.9753125,128.4939235015349L223.29623263888888,148.39765039086342L223.36041666666665,-35.92474735866891L223.68133680555556,126.48883904652163L223.8097048611111,157.80391464585608L224.25899305555558,135.28695327043533L224.4515451388889,161.89866356280717L224.57991319444446,165.55342380702496L224.64409722222223,165.34294487129557L224.7724652777778,167.73582596060905L224.83664930555557,168.85618556019935L224.9650173611111,142.09921285239133L225.3501215277778,149.47179609808057L225.86359375,135.03382946686312L225.92777777777778,134.8973601352085L226.24869791666666,162.544196638194L226.56961805555557,142.69454820318654L226.89053819444445,158.90691466358575L227.72493055555555,113.16128382357685L227.78911458333332,88.53947434642099L227.85329861111111,136.59961100058123L228.49513888888887,103.16984700614756L228.94442708333332,162.06245505403388L229.13697916666666,168.35583697394893L229.45789930555554,172.01667157323524L230.03555555555553,173.03943267837167L230.09973958333333,166.8753283917904L230.1639236111111,167.93490547754547L230.48484375,170.82221395319158L230.86994791666666,138.4858086949045L231.0625,165.75356971540234L231.3192361111111,165.8853071223606L231.38342013888888,144.44292904030192L231.44760416666668,173.66745241731405L231.57597222222222,172.89267947287723L231.83270833333333,167.3766408664259L231.8968923611111,109.99297790635715L232.02526041666667,149.74709892543882L232.08944444444444,168.5843600441109L232.34618055555555,168.1875898966735L232.41036458333332,168.30029770122334L232.47454861111112,147.52079009738836L232.79546875000003,166.89188832992858L232.92383680555554,173.2225546874106L233.56567708333333,172.1640871522779L233.6298611111111,154.5976849956946L233.88659722222224,162.3966150161895L234.01496527777778,153.38548026030713L234.33588541666668,138.01728700778702L234.46425347222223,173.9371514445679L234.65680555555554,164.48060524463654L234.7851736111111,155.18764463067055L235.4270138888889,170.66057502613828L235.61956597222223,165.20723202418196L235.81211805555554,167.92958970503375L236.13303819444445,157.85770896889946L236.32559027777776,170.44242454591122L236.71069444444444,167.2527482401241L236.90324652777775,161.88533456894484L237.03161458333332,162.5800894918767L237.35253472222223,153.980494314974L237.48090277777777,145.4620060297576L237.73763888888888,167.841163136065L237.80182291666668,149.5068725239147L238.3152951388889,164.48815450478685L238.57203124999998,169.0265738124197L238.63621527777778,77.79868863929401L238.82876736111112,166.6109340475364L238.9571354166667,136.93618308143184L239.4064236111111,127.0382026759061L239.66315972222222,166.2136573791504L239.91989583333333,75.8299010558562L240.17663194444447,134.7887428619645L240.30499999999998,150.31849771467122L240.69010416666669,165.11675239693034L241.4603125,159.99546594646844L241.58868055555556,161.06464714895594L241.71704861111112,137.9667763791301L241.90960069444446,146.84427712180397L242.10215277777777,164.74438457055524L242.29470486111111,125.35562760179694L242.35888888888888,113.33347936651923L242.67980902777776,117.68884979594837L243.19328124999998,126.36338010159406L243.5783854166667,162.80141097307205L243.7709375,141.97015970674428L243.83512152777777,168.0333593629978L244.34859375,153.00671048868787L244.8620659722222,171.4448031281883L245.4397222222222,126.47872061621061L245.69645833333334,148.1799291047183L246.1457465277778,171.90983191877604L246.53085069444444,160.08697539974344L246.65921875,162.03480680286884L246.85177083333335,169.67582696947184L247.36524305555557,169.9576162621379L247.4936111111111,169.04114543104714L247.5577951388889,166.7521293095567L247.94289930555556,156.53207471153954L248.07126736111113,168.0472829944708L248.1354513888889,147.23950972340324L248.19963541666664,151.19242318380964L248.45637152777778,131.40240155566823L248.52055555555555,150.7402923947031L248.58473958333335,167.35611028359696L248.7131076388889,161.32993824509057L248.90565972222223,94.90501242334193L249.03402777777777,130.7505540522662L249.35494791666665,153.2395302951336L249.41913194444444,161.6953382613984L249.61168402777778,133.81137922135267L249.93260416666666,169.64858093790033L249.99678819444443,162.78005197373304L250.18934027777777,162.12206148017538L250.51026041666665,168.14798175679013L250.63862847222222,161.30558088150892L250.83118055555556,136.6104055914012L250.89536458333333,163.5233154188503L250.95954861111113,144.0453562519767L251.15210069444444,159.2691352868622L251.53720486111112,151.50435376980087L251.79394097222223,110.88480964032087L252.05067708333334,162.36615902049974L252.17904513888888,159.39937051453373L252.4999652777778,-75.77670784430067L252.56414930555556,167.8920747854493L252.69251736111113,138.55464279380712L252.88506944444444,97.82658689130436L253.20598958333335,154.00370196591723L253.84782986111114,171.8672865568237L253.91201388888888,151.7353680838238L254.16875,153.23510168357328L254.29711805555556,157.2844303575429L254.61803819444444,172.62548217956316L254.74640625,171.29790485988963L254.87477430555558,142.09180146184835L255.0031423611111,163.89357563853264L255.19569444444443,162.65867756578055L255.51661458333334,171.58238800479606L255.5807986111111,169.11615548892453L255.64498263888888,123.7292170091109L255.70916666666665,131.60160995071584L255.77335069444445,165.8778933340853L255.83753472222222,166.45614124563608L256.0942708333333,168.02419463070956L256.22263888888887,166.33866075494072L256.35100694444446,157.4798395457593L256.5435590277778,148.11483546820554L256.7361111111111,155.19555714726448L256.8002951388889,165.741721321236L256.9928472222222,128.06307498433372L257.6988715277778,169.83941225572065L258.01979166666666,164.66424156725407L258.08397569444446,22.690417885780356L258.4690798611111,123.61105196584354L258.79,147.22606084292585L259.0467361111111,140.16243259744212L259.1109201388889,145.21305188265714L259.4318402777778,141.62805605747482L259.6243923611111,159.06517938185823L260.0094965277778,174.08825053985822L260.2662326388889,128.20346700603312L260.52296875,131.67480792240664L260.65133680555556,117.04506346854298L261.03644097222224,4.69498619166288L261.2289930555556,137.8040422878482L261.48572916666666,164.95799254693767L261.6140972222222,152.6478586792946L261.67828125,161.5519394833933L261.87083333333334,160.0185273357413L261.9350173611111,148.42464406111023L262.1917534722222,170.75320002436638L262.38430555555556,90.4446932510896L262.4484895833333,165.94937452944842L262.5126736111111,116.38774913549423L262.64104166666664,82.28641868721355L263.21869791666666,153.20017151940954L263.7321701388889,157.47729914838618L264.0530902777778,172.4359021782875L264.11727430555555,147.00475254925817L264.1814583333333,165.69671109047803L264.2456423611111,153.23152666471222L264.43819444444443,164.65940294347027L264.6949305555555,133.0898152535612L265.01585069444445,150.58225066553462L265.14421875,166.8949981887232L265.721875,102.91149135069415L265.91442708333335,160.57172613794154L266.68463541666665,147.6500662321394L266.8771875,155.079118471254L267.00555555555553,173.74167571928012L267.13392361111113,138.26629630273038L267.32647569444447,162.04563256420872L267.45484375,126.54164190725848L267.58321180555555,136.43777845664457L267.7115798611111,160.88609881428155L267.7757638888889,125.5746412656524L267.8399479166667,172.13848027045077L268.61015625,167.80470801415768L268.99526041666667,169.61408356441692L269.5729166666667,76.75519554181534L269.6371006944444,155.93829309127548L270.0863888888889,104.3820493438027L270.34312500000004,165.7068283219229L270.4073090277778,165.5387101227587L270.72822916666667,170.6434977772561L270.79241319444446,173.99464666741815L270.98496527777775,21.69211724671452L271.49843749999997,-19.11871556802229L271.6909895833333,172.14202501794153L271.7551736111111,169.28902239691126L272.07609375,153.98175791989672L272.3328298611111,146.70071050253782L272.52538194444446,74.41780936717987L272.58956597222226,160.24333871630105L272.71793402777774,172.49849378114396L272.78211805555554,168.34772364727476L272.9746701388889,140.51182535290718L273.0388541666667,170.61267852512273L273.1030381944445,145.08468928391284L273.5523263888889,170.7747142768719L273.68069444444444,171.69645052809608L273.8090625,136.04577320272273L274.1299826388889,126.2906520854343L274.57927083333334,150.117246451703L274.7718229166667,154.09806711836293L274.8360069444445,154.25933619520882L274.9001909722222,164.4012978510423L274.96437499999996,161.23592316156083L275.02855902777776,172.99309590221807" style="fill: none;" fill="none"></path></g></g></g></g></g></g><g transform="translate(41, 177)" clip-path="url(#clip_1)"><clipPath id="clip_1"><rect width="288" height="23"></rect></clipPath><g><g><line x1="0" y1="0" x2="0" y2="5" style="visibility: inherit;" fill="rgb(0, 0, 0)" stroke="rgb(204, 204, 204)" stroke-width="1px"></line><line x1="32.092013888888886" y1="0" x2="32.092013888888886" y2="5" style="visibility: inherit;" fill="rgb(0, 0, 0)" stroke="rgb(204, 204, 204)" stroke-width="1px"></line><line x1="64.18402777777777" y1="0" x2="64.18402777777777" y2="5" style="visibility: inherit;" fill="rgb(0, 0, 0)" stroke="rgb(204, 204, 204)" stroke-width="1px"></line><line x1="96.27604166666666" y1="0" x2="96.27604166666666" y2="5" style="visibility: inherit;" fill="rgb(0, 0, 0)" stroke="rgb(204, 204, 204)" stroke-width="1px"></line><line x1="128.36805555555554" y1="0" x2="128.36805555555554" y2="5" style="visibility: inherit;" fill="rgb(0, 0, 0)" stroke="rgb(204, 204, 204)" stroke-width="1px"></line><line x1="160.46006944444446" y1="0" x2="160.46006944444446" y2="5" style="visibility: inherit;" fill="rgb(0, 0, 0)" stroke="rgb(204, 204, 204)" stroke-width="1px"></line><line x1="192.55208333333331" y1="0" x2="192.55208333333331" y2="5" style="visibility: inherit;" fill="rgb(0, 0, 0)" stroke="rgb(204, 204, 204)" stroke-width="1px"></line><line x1="224.64409722222223" y1="0" x2="224.64409722222223" y2="5" style="visibility: inherit;" fill="rgb(0, 0, 0)" stroke="rgb(204, 204, 204)" stroke-width="1px"></line><line x1="256.7361111111111" y1="0" x2="256.7361111111111" y2="5" style="visibility: inherit;" fill="rgb(0, 0, 0)" stroke="rgb(204, 204, 204)" stroke-width="1px"></line><line x1="288.828125" y1="0" x2="288.828125" y2="5" style="visibility: inherit;" fill="rgb(0, 0, 0)" stroke="rgb(204, 204, 204)" stroke-width="1px"></line></g><g transform="translate(0, 8)"><text x="0" y="0" dx="0em" dy="0.95em" style="text-anchor: middle; visibility: hidden; font-family: Roboto, sans-serif; font-size: 12px; font-weight: 200;" fill="rgb(33, 33, 33)" stroke="none" stroke-width="1px">-500</text><text x="32.092013888888886" y="0" dx="0em" dy="0.95em" style="text-anchor: middle; visibility: inherit; font-family: Roboto, sans-serif; font-size: 12px; font-weight: 200;" fill="rgb(33, 33, 33)" stroke="none" stroke-width="1px">0</text><text x="64.18402777777777" y="0" dx="0em" dy="0.95em" style="text-anchor: middle; visibility: inherit; font-family: Roboto, sans-serif; font-size: 12px; font-weight: 200;" fill="rgb(33, 33, 33)" stroke="none" stroke-width="1px">500</text><text x="96.27604166666666" y="0" dx="0em" dy="0.95em" style="text-anchor: middle; visibility: inherit; font-family: Roboto, sans-serif; font-size: 12px; font-weight: 200;" fill="rgb(33, 33, 33)" stroke="none" stroke-width="1px">1k</text><text x="128.36805555555554" y="0" dx="0em" dy="0.95em" style="text-anchor: middle; visibility: inherit; font-family: Roboto, sans-serif; font-size: 12px; font-weight: 200;" fill="rgb(33, 33, 33)" stroke="none" stroke-width="1px">1.5k</text><text x="160.46006944444446" y="0" dx="0em" dy="0.95em" style="text-anchor: middle; visibility: inherit; font-family: Roboto, sans-serif; font-size: 12px; font-weight: 200;" fill="rgb(33, 33, 33)" stroke="none" stroke-width="1px">2k</text><text x="192.55208333333331" y="0" dx="0em" dy="0.95em" style="text-anchor: middle; visibility: inherit; font-family: Roboto, sans-serif; font-size: 12px; font-weight: 200;" fill="rgb(33, 33, 33)" stroke="none" stroke-width="1px">2.5k</text><text x="224.64409722222223" y="0" dx="0em" dy="0.95em" style="text-anchor: middle; visibility: inherit; font-family: Roboto, sans-serif; font-size: 12px; font-weight: 200;" fill="rgb(33, 33, 33)" stroke="none" stroke-width="1px">3k</text><text x="256.7361111111111" y="0" dx="0em" dy="0.95em" style="text-anchor: middle; visibility: inherit; font-family: Roboto, sans-serif; font-size: 12px; font-weight: 200;" fill="rgb(33, 33, 33)" stroke="none" stroke-width="1px">3.5k</text><text x="288.828125" y="0" dx="0em" dy="0.95em" style="text-anchor: middle; visibility: hidden; font-family: Roboto, sans-serif; font-size: 12px; font-weight: 200;" fill="rgb(33, 33, 33)" stroke="none" stroke-width="1px">4k</text></g><line x1="0" y1="0" x2="288.828125" y2="0" fill="rgb(0, 0, 0)" stroke="rgb(204, 204, 204)" stroke-width="1px"></line></g></g></g></g></svg>